<svg width="48" height="23" viewBox="0 0 48 23" fill="none" xmlns="http://www.w3.org/2000/svg">
<path d="M8.66641 10.76H9.90641C13.1331 10.76 14.7464 9.22667 14.7464 6.16C14.7464 2.98667 13.1331 1.4 9.90641 1.4H8.66641V10.76ZM8.66641 22.2H10.9064C12.5064 22.2 13.7731 21.7867 14.7064 20.96C15.6397 20.1333 16.1064 18.9333 16.1064 17.36C16.1064 15.1467 15.5597 13.6267 14.4664 12.8C13.3731 11.9733 11.8664 11.56 9.94641 11.56H8.66641V22.2ZM0.666406 23V22.2H2.66641V1.4H0.666406V0.6H10.7464C14.0531 0.6 16.4797 1.10667 18.0264 2.12C19.5997 3.13333 20.3864 4.52 20.3864 6.28C20.3864 7.69333 19.9197 8.85333 18.9864 9.76C18.0797 10.64 16.8531 11.08 15.3064 11.08V11.32C17.2264 11.32 18.8397 11.84 20.1464 12.88C21.4531 13.8933 22.1064 15.3467 22.1064 17.24C22.1064 19.1333 21.3464 20.5733 19.8264 21.56C18.3064 22.52 16.1331 23 13.3064 23H0.666406ZM47.5345 0.6V1.4H44.8145L36.2945 23H35.2545L25.2145 1.4H23.2945V0.6H34.6145V1.4H32.6545L38.4945 14.8L43.7745 1.4H40.5745V0.6H47.5345Z" fill="#FFFEFE"/>
</svg>
